# xmcd
#
# Track frame offsets: 
#        150
#        13163
#        25964
#        37964
#        51764
#        63088
#        76542
#        91878
#        102447
#        112768
#        126030
#        137517
#        150942
#        165632
#        177307
#        192068
#        204223
#        215365
#        228400
#        238184
#        252459
#        263813
#        276484
#        286134
#        296804
#
# Disc length: 4169 seconds
#
# Revision: 1
# Processed by: cddbd v1.5.2PL0 Copyright (c) Steve Scherf et al.
# Submitted via: ExactAudioCopyFreeDBPlugin 1.0
#
DISCID=51104719
DTITLE=Will Tura - The Real... Will Tura [CD2-3]
DYEAR=2017
DGENRE=Easy Listening
TTITLE0=El bandido  (1966)
TTITLE1=Arme Joe  (1967)
TTITLE2=Arrivederci Maria  (1966)
TTITLE3=Angelina  (1968)
TTITLE4=Viva el amor  (1967)
TTITLE5=Liefdeverdriet  (1969)
TTITLE6=Bid voor mij  (1972)
TTITLE7=Horen, zien en zwijgen  (1967)
TTITLE8=Zorg voor m'n hart  (1968)
TTITLE9=De zigeuner  (1967)
TTITLE10=Alle wegen leiden naar Rome  (1971)
TTITLE11=San Miguel  (1970)
TTITLE12=Hij komt terug  (1970)
TTITLE13=M'n airhostess  (1970)
TTITLE14=Mijn winterroosje  (1967)
TTITLE15=Eerste schooldag [met Frida]  (1968)
TTITLE16=John en Jenny Davis  (1966)
TTITLE17=Aan wie zich ongelukkig voelt  (1966)
TTITLE18=Het allerliefste liefje  (1960)
TTITLE19=Geen zomer zonder jou  (1967)
TTITLE20=Vaarwel en tot weerziens  (1968)
TTITLE21=De fanfare  (1967)
TTITLE22=Ben je 's avonds nooit alleen  (1967)
TTITLE23=Lieve moeder  (1966)
TTITLE24=Bamboe Jack  (1970)
EXTD=
EXTT0=
EXTT1=
EXTT2=
EXTT3=
EXTT4=
EXTT5=
EXTT6=
EXTT7=
EXTT8=
EXTT9=
EXTT10=
EXTT11=
EXTT12=
EXTT13=
EXTT14=
EXTT15=
EXTT16=
EXTT17=
EXTT18=
EXTT19=
EXTT20=
EXTT21=
EXTT22=
EXTT23=
EXTT24=
PLAYORDER=
